<!-- Generated by readme-aura https://github.com/collectioneur/readme-aura -->
<svg width="860" height="80" viewBox="0 0 860 80" xmlns="http://www.w3.org/2000/svg"><defs><clipPath id="satori_bc-id"><path x="0" y="0" width="860" height="80" d="M16,0 h828 a16,16 0 0 1 16,16 v48 a16,16 0 0 1 -16,16 h-828 a16,16 0 0 1 -16,-16 v-48 a16,16 0 0 1 16,-16"/></clipPath></defs><clipPath id="satori_cp-id"><path x="0" y="0" width="860" height="80" d="M16,0 h828 a16,16 0 0 1 16,16 v48 a16,16 0 0 1 -16,16 h-828 a16,16 0 0 1 -16,-16 v-48 a16,16 0 0 1 16,-16"/></clipPath><mask id="satori_om-id"><rect x="1" y="1" width="858" height="78" fill="#fff"/><path width="860" height="80" fill="none" stroke="#000" stroke-width="2" d="M4.686,4.686 A16,16 0 0 1 16,0 h828 a16,16 0 0 1 16,16 v48 a16,16 0 0 1 -16,16 h-828 a16,16 0 0 1 -16,-16 v-48 A16,16 0 0 1 4.686,4.686"/></mask><path x="0" y="0" width="860" height="80" fill="#06060a" d="M16,0 h828 a16,16 0 0 1 16,16 v48 a16,16 0 0 1 -16,16 h-828 a16,16 0 0 1 -16,-16 v-48 a16,16 0 0 1 16,-16"/><path width="860" height="80" clip-path="url(#satori_bc-id)" fill="none" stroke="rgba(0,229,255,0.05)" stroke-width="2" d="M4.686,4.686 A16,16 0 0 1 16,0 h828 a16,16 0 0 1 16,16 v48 a16,16 0 0 1 -16,16 h-828 a16,16 0 0 1 -16,-16 v-48 A16,16 0 0 1 4.686,4.686"/><clipPath id="satori_cp-id-0" clip-path="url(#satori_cp-id)"><rect x="1" y="1" width="860" height="80"/></clipPath><mask id="satori_om-id-0"><rect x="1" y="1" width="860" height="80" fill="#fff" mask="url(#satori_om-id)"/></mask><svg x="1" y="1" width="860" height="80" preserveAspectRatio="none" clip-path="url(#satori_cp-id-0)" mask="url(#satori_om-id-0)"><defs><linearGradient id="fsg" x1="0" y1="0" x2="0" y2="1"><stop offset="0%" stop-color="rgba(0,229,255,0)"></stop><stop offset="45%" stop-color="rgba(0,229,255,0.03)"></stop><stop offset="50%" stop-color="rgba(0,229,255,0.08)"></stop><stop offset="55%" stop-color="rgba(0,229,255,0.03)"></stop><stop offset="100%" stop-color="rgba(0,229,255,0)"></stop></linearGradient><radialGradient id="ftg1" cx="50%" cy="50%" r="50%"><stop offset="0%" stop-color="rgba(139,92,246,0.25)"></stop><stop offset="100%" stop-color="rgba(139,92,246,0)"></stop></radialGradient></defs><line x1="0" y1="1" x2="860" y2="1" stroke="rgba(0,229,255,0.06)" stroke-width="1"></line><ellipse id="ftorb1" cx="430" cy="40" rx="300" ry="60" fill="url(#ftg1)"></ellipse><rect id="ftscan" x="0" y="0" width="860" height="80" fill="url(#fsg)"></rect><style>

    @keyframes ft-scan { 0% { transform: translateY(-80px); } 100% { transform: translateY(80px); } }
    @keyframes ft-pulse { 0%, 100% { opacity: 0.3; } 50% { opacity: 0.7; } }
    @keyframes ft-orb { 0%, 100% { transform: translate(0,0); opacity: 0.25; } 50% { transform: translate(30px,-10px); opacity: 0.45; } }
    #ftscan { animation: ft-scan 4s linear infinite; }
    #ftd1 { animation: ft-pulse 3s ease-in-out infinite; }
    #ftd2 { animation: ft-pulse 3s ease-in-out infinite 1s; }
    #ftd3 { animation: ft-pulse 3s ease-in-out infinite 2s; }
    #ftorb1 { animation: ft-orb 8s ease-in-out infinite; }
  
</style>
</svg><mask id="satori_om-id-0-0"><rect x="1" y="1" width="0" height="80" fill="#fff" mask="url(#satori_om-id)"/></mask><mask id="satori_om-id-0-0-0"><rect x="1" y="1" width="0" height="80" fill="#fff" mask="url(#satori_om-id)"/></mask><mask id="satori_om-id-0-0-0-0"><rect x="1" y="1" width="0" height="80" fill="#fff" mask="url(#satori_om-id)"/></mask><mask id="satori_om-id-0-0-0-1"><rect x="1" y="1" width="0" height="80" fill="#fff" mask="url(#satori_om-id)"/></mask><mask id="satori_om-id-0-0-0-2"><rect x="1" y="1" width="0" height="80" fill="#fff" mask="url(#satori_om-id)"/></mask><mask id="satori_om-id-0-0-0-3"><rect x="1" y="1" width="0" height="80" fill="#fff" mask="url(#satori_om-id)"/></mask><mask id="satori_om-id-0-0-0-4"><rect x="1" y="1" width="0" height="80" fill="#fff" mask="url(#satori_om-id)"/></mask><mask id="satori_om-id-0-0-1"><rect x="1" y="1" width="0" height="80" fill="#fff" mask="url(#satori_om-id)"/></mask><mask id="satori_om-id-0-0-1-0"><rect x="1" y="1" width="0" height="80" fill="#fff" mask="url(#satori_om-id)"/></mask><mask id="satori_om-id-0-0-1-1"><rect x="1" y="1" width="0" height="80" fill="#fff" mask="url(#satori_om-id)"/></mask><mask id="satori_om-id-0-1"><rect x="1" y="1" width="0" height="80" fill="#fff" mask="url(#satori_om-id)"/></mask><mask id="satori_om-id-0-2"><rect x="1" y="1" width="0" height="80" fill="#fff" mask="url(#satori_om-id)"/></mask><mask id="satori_om-id-0-3"><rect x="1" y="1" width="0" height="80" fill="#fff" mask="url(#satori_om-id)"/></mask><mask id="satori_om-id-1"><rect x="418" y="28" width="24" height="4" fill="#fff" mask="url(#satori_om-id)"/></mask><mask id="satori_om-id-1-0"><rect x="418" y="28" width="4" height="4" fill="#fff" mask="url(#satori_om-id)"/></mask><path x="418" y="28" width="4" height="4" fill="rgba(0,229,255,0.6)" d="M420,28 h0 a2,2 0 0 1 2,2 v0 a2,2 0 0 1 -2,2 h0 a2,2 0 0 1 -2,-2 v0 a2,2 0 0 1 2,-2" clip-path="url(#satori_cp-id)" mask="url(#satori_om-id)"/><mask id="satori_om-id-1-1"><rect x="428" y="28" width="4" height="4" fill="#fff" mask="url(#satori_om-id)"/></mask><path x="428" y="28" width="4" height="4" fill="rgba(139,92,246,0.6)" d="M430,28 h0 a2,2 0 0 1 2,2 v0 a2,2 0 0 1 -2,2 h0 a2,2 0 0 1 -2,-2 v0 a2,2 0 0 1 2,-2" clip-path="url(#satori_cp-id)" mask="url(#satori_om-id)"/><mask id="satori_om-id-1-2"><rect x="438" y="28" width="4" height="4" fill="#fff" mask="url(#satori_om-id)"/></mask><path x="438" y="28" width="4" height="4" fill="rgba(236,72,153,0.6)" d="M440,28 h0 a2,2 0 0 1 2,2 v0 a2,2 0 0 1 -2,2 h0 a2,2 0 0 1 -2,-2 v0 a2,2 0 0 1 2,-2" clip-path="url(#satori_cp-id)" mask="url(#satori_om-id)"/><mask id="satori_om-id-2"><rect x="246" y="40" width="368" height="13" fill="#fff" mask="url(#satori_om-id)"/></mask><g mask="url(#satori_om-id)" clip-path="url(#satori_cp-id)"><path fill="rgba(255,255,255,0.20)" d="M249.3 53.4L249.3 53.4Q248.6 53.4 248.1 53.2Q247.6 53.0 247.3 52.8Q247.0 52.5 246.8 52.1L246.8 52.1L247.6 51.6Q247.7 51.8 247.9 52.0Q248.1 52.2 248.4 52.4Q248.8 52.5 249.3 52.5L249.3 52.5Q250.0 52.5 250.5 52.2Q250.9 51.8 250.9 51.1L250.9 51.1L250.9 49.9L250.8 49.9Q250.7 50.1 250.6 50.3Q250.4 50.5 250.0 50.7Q249.7 50.9 249.1 50.9L249.1 50.9Q248.4 50.9 247.8 50.6Q247.2 50.2 246.9 49.6Q246.6 48.9 246.6 48.0L246.6 48.0Q246.6 47.0 246.9 46.4Q247.2 45.7 247.8 45.3Q248.4 44.9 249.1 44.9L249.1 44.9Q249.7 44.9 250.0 45.1Q250.4 45.3 250.6 45.5Q250.8 45.8 250.9 46.0L250.9 46.0L251.0 46.0L251.0 45.0L251.9 45.0L251.9 51.2Q251.9 51.9 251.5 52.4Q251.2 52.9 250.6 53.1Q250.0 53.4 249.3 53.4ZM249.3 50.0L249.3 50.0Q249.8 50.0 250.2 49.8Q250.6 49.5 250.7 49.1Q250.9 48.6 250.9 47.9L250.9 47.9Q250.9 47.3 250.8 46.8Q250.6 46.3 250.2 46.1Q249.8 45.8 249.3 45.8L249.3 45.8Q248.7 45.8 248.3 46.1Q247.9 46.4 247.7 46.9Q247.5 47.3 247.5 47.9L247.5 47.9Q247.5 48.6 247.7 49.0Q247.9 49.5 248.3 49.8Q248.7 50.0 249.3 50.0ZM258.3 51.1L258.3 51.1Q257.7 51.1 257.2 50.9Q256.8 50.7 256.5 50.3Q256.2 49.9 256.2 49.3L256.2 49.3Q256.2 48.8 256.4 48.5Q256.6 48.1 257.0 47.9Q257.3 47.8 257.7 47.7Q258.1 47.6 258.6 47.5L258.6 47.5Q259.1 47.5 259.4 47.4Q259.8 47.4 259.9 47.3Q260.1 47.2 260.1 47.0L260.1 47.0L260.1 46.9Q260.1 46.6 260.0 46.3Q259.8 46.0 259.5 45.9Q259.3 45.8 258.9 45.8L258.9 45.8Q258.4 45.8 258.1 45.9Q257.8 46.0 257.6 46.2Q257.4 46.4 257.3 46.6L257.3 46.6L256.4 46.3Q256.6 45.8 257.0 45.5Q257.4 45.2 257.9 45.0Q258.4 44.9 258.8 44.9L258.8 44.9Q259.1 44.9 259.5 45.0Q259.9 45.1 260.2 45.3Q260.6 45.5 260.8 45.9Q261.1 46.3 261.1 47.0L261.1 47.0L261.1 51L260.1 51L260.1 50.2L260.1 50.2Q260.0 50.4 259.7 50.6Q259.5 50.8 259.1 51.0Q258.8 51.1 258.3 51.1ZM258.4 50.3L258.4 50.3Q259.0 50.3 259.4 50.1Q259.7 49.9 259.9 49.5Q260.1 49.2 260.1 48.8L260.1 48.8L260.1 48.0Q260.0 48.1 259.8 48.1Q259.7 48.2 259.4 48.2Q259.1 48.3 258.9 48.3Q258.7 48.3 258.5 48.3L258.5 48.3Q258.2 48.4 257.9 48.5Q257.6 48.6 257.4 48.8Q257.2 49.0 257.2 49.3L257.2 49.3Q257.2 49.7 257.4 49.9Q257.5 50.1 257.8 50.2Q258.1 50.3 258.4 50.3ZM267.8 51.1L267.8 51.1Q267.2 51.1 266.7 50.8Q266.3 50.6 266.0 50.1Q265.8 49.6 265.8 48.8L265.8 48.8L265.8 45.0L266.7 45.0L266.7 48.7Q266.7 49.4 267.1 49.8Q267.5 50.2 268.1 50.2L268.1 50.2Q268.5 50.2 268.9 50.0Q269.2 49.8 269.4 49.5Q269.6 49.1 269.6 48.6L269.6 48.6L269.6 45.0L270.6 45.0L270.6 51L269.6 51L269.6 49.9Q269.4 50.5 269.0 50.7L269.0 50.7Q268.5 51.1 267.8 51.1ZM276.2 51L275.3 51L275.3 45.0L276.2 45.0L276.2 45.9L276.3 45.9Q276.4 45.5 276.9 45.2Q277.3 44.9 277.8 44.9L277.8 44.9Q277.9 44.9 278.1 44.9Q278.2 44.9 278.3 44.9L278.3 44.9L278.3 45.9Q278.3 45.9 278.1 45.9Q277.9 45.8 277.7 45.8L277.7 45.8Q277.3 45.8 277.0 46.0Q276.6 46.2 276.4 46.5Q276.2 46.8 276.2 47.2L276.2 47.2L276.2 51ZM284.1 51.1L284.1 51.1Q283.5 51.1 283.1 50.9Q282.6 50.7 282.3 50.3Q282.1 49.9 282.1 49.3L282.1 49.3Q282.1 48.8 282.3 48.5Q282.5 48.1 282.8 47.9Q283.1 47.8 283.6 47.7Q284.0 47.6 284.4 47.5L284.4 47.5Q284.9 47.5 285.3 47.4Q285.6 47.4 285.8 47.3Q285.9 47.2 285.9 47.0L285.9 47.0L285.9 46.9Q285.9 46.6 285.8 46.3Q285.7 46.0 285.4 45.9Q285.1 45.8 284.7 45.8L284.7 45.8Q284.2 45.8 283.9 45.9Q283.6 46.0 283.4 46.2Q283.2 46.4 283.2 46.6L283.2 46.6L282.2 46.3Q282.5 45.8 282.8 45.5Q283.2 45.2 283.7 45.0Q284.2 44.9 284.6 44.9L284.6 44.9Q284.9 44.9 285.3 45.0Q285.7 45.1 286.1 45.3Q286.4 45.5 286.7 45.9Q286.9 46.3 286.9 47.0L286.9 47.0L286.9 51L285.9 51L285.9 50.2L285.9 50.2Q285.8 50.4 285.6 50.6Q285.3 50.8 285.0 51.0Q284.6 51.1 284.1 51.1ZM284.3 50.3L284.3 50.3Q284.8 50.3 285.2 50.1Q285.5 49.9 285.7 49.5Q285.9 49.2 285.9 48.8L285.9 48.8L285.9 48.0Q285.9 48.1 285.7 48.1Q285.5 48.2 285.2 48.2Q285.0 48.3 284.7 48.3Q284.5 48.3 284.3 48.3L284.3 48.3Q284.0 48.4 283.7 48.5Q283.4 48.6 283.2 48.8Q283.0 49.0 283.0 49.3L283.0 49.3Q283.0 49.7 283.2 49.9Q283.3 50.1 283.6 50.2Q283.9 50.3 284.3 50.3ZM294.3 51L293.3 51L291.0 45.0L292.1 45.0L293.4 48.6Q293.6 49.1 293.7 49.7L293.7 49.7Q293.8 49.9 293.8 50.1L293.8 50.1Q293.9 49.9 294.0 49.7L294.0 49.7Q294.1 49.1 294.3 48.6L294.3 48.6L295.6 45.0L296.6 45.0L294.3 51Z M307.8 51L306.9 51L306.9 43.0L307.8 43.0L307.8 47.6L308.0 47.6L310.5 45.0L311.7 45.0L309.2 47.6L311.9 51L310.7 51L308.5 48.2L307.8 48.8L307.8 51ZM317.9 51.1L317.9 51.1Q317.3 51.1 316.9 50.8Q316.4 50.6 316.2 50.1Q315.9 49.6 315.9 48.8L315.9 48.8L315.9 45.0L316.9 45.0L316.9 48.7Q316.9 49.4 317.2 49.8Q317.6 50.2 318.2 50.2L318.2 50.2Q318.7 50.2 319.0 50.0Q319.3 49.8 319.5 49.5Q319.7 49.1 319.7 48.6L319.7 48.6L319.7 45.0L320.7 45.0L320.7 51L319.8 51L319.8 49.9Q319.5 50.5 319.1 50.7L319.1 50.7Q318.6 51.1 317.9 51.1ZM326.4 51L325.4 51L325.4 45.0L326.4 45.0L326.4 46.1Q326.5 45.8 326.7 45.5L326.7 45.5Q326.9 45.2 327.3 45.0Q327.7 44.9 328.0 44.9L328.0 44.9Q328.7 44.9 329.1 45.3L329.1 45.3Q329.4 45.6 329.6 46.1L329.6 46.1Q329.7 45.8 329.9 45.6L329.9 45.6Q330.2 45.2 330.6 45.1Q331.0 44.9 331.5 44.9L331.5 44.9Q332.0 44.9 332.4 45.1Q332.8 45.3 333.1 45.8Q333.3 46.3 333.3 47.0L333.3 47.0L333.3 51L332.4 51L332.4 47.0Q332.4 46.3 332.0 46.0Q331.7 45.8 331.2 45.8L331.2 45.8Q330.8 45.8 330.5 45.9Q330.2 46.1 330.0 46.4Q329.9 46.7 329.9 47.1L329.9 47.1L329.9 51L328.9 51L328.9 46.9Q328.9 46.4 328.6 46.1Q328.2 45.8 327.7 45.8L327.7 45.8Q327.4 45.8 327.1 45.9Q326.8 46.1 326.6 46.4Q326.4 46.7 326.4 47.2L326.4 47.2L326.4 51ZM339.7 51.1L339.7 51.1Q339.2 51.1 338.7 50.9Q338.2 50.7 338.0 50.3Q337.7 49.9 337.7 49.3L337.7 49.3Q337.7 48.8 337.9 48.5Q338.1 48.1 338.4 47.9Q338.8 47.8 339.2 47.7Q339.6 47.6 340.0 47.5L340.0 47.5Q340.6 47.5 340.9 47.4Q341.2 47.4 341.4 47.3Q341.6 47.2 341.6 47.0L341.6 47.0L341.6 46.9Q341.6 46.6 341.4 46.3Q341.3 46.0 341.0 45.9Q340.7 45.8 340.3 45.8L340.3 45.8Q339.9 45.8 339.6 45.9Q339.3 46.0 339.1 46.2Q338.9 46.4 338.8 46.6L338.8 46.6L337.9 46.3Q338.1 45.8 338.5 45.5Q338.9 45.2 339.3 45.0Q339.8 44.9 340.3 44.9L340.3 44.9Q340.6 44.9 341.0 45.0Q341.3 45.1 341.7 45.3Q342.1 45.5 342.3 45.9Q342.5 46.3 342.5 47.0L342.5 47.0L342.5 51L341.6 51L341.6 50.2L341.5 50.2Q341.4 50.4 341.2 50.6Q341.0 50.8 340.6 51.0Q340.2 51.1 339.7 51.1ZM339.9 50.3L339.9 50.3Q340.4 50.3 340.8 50.1Q341.2 49.9 341.4 49.5Q341.6 49.2 341.6 48.8L341.6 48.8L341.6 48.0Q341.5 48.1 341.3 48.1Q341.1 48.2 340.8 48.2Q340.6 48.3 340.4 48.3Q340.1 48.3 340.0 48.3L340.0 48.3Q339.6 48.4 339.3 48.5Q339.0 48.6 338.8 48.8Q338.7 49.0 338.7 49.3L338.7 49.3Q338.7 49.7 338.8 49.9Q339.0 50.1 339.3 50.2Q339.5 50.3 339.9 50.3ZM348.2 51L347.2 51L347.2 45.0L348.2 45.0L348.2 45.9L348.2 45.9Q348.4 45.5 348.8 45.2Q349.2 44.9 349.8 44.9L349.8 44.9Q349.9 44.9 350.0 44.9Q350.2 44.9 350.3 44.9L350.3 44.9L350.3 45.9Q350.2 45.9 350.1 45.9Q349.9 45.8 349.7 45.8L349.7 45.8Q349.3 45.8 348.9 46.0Q348.6 46.2 348.4 46.5Q348.2 46.8 348.2 47.2L348.2 47.2L348.2 51Z M361.4 53.2L360.5 53.2L360.5 45.0L361.4 45.0L361.4 46.0L361.5 46.0Q361.6 45.8 361.8 45.6Q362.0 45.3 362.3 45.1Q362.7 44.9 363.2 44.9L363.2 44.9Q364.0 44.9 364.6 45.3Q365.1 45.7 365.5 46.4Q365.8 47.1 365.8 48.0L365.8 48.0Q365.8 49.0 365.5 49.7Q365.1 50.4 364.6 50.7Q364.0 51.1 363.2 51.1L363.2 51.1Q362.7 51.1 362.3 50.9Q362.0 50.7 361.8 50.5Q361.6 50.2 361.5 50.1L361.5 50.1L361.4 50.1L361.4 53.2ZM363.1 50.3L363.1 50.3Q363.7 50.3 364.0 50.0Q364.4 49.7 364.6 49.1Q364.8 48.6 364.8 48.0L364.8 48.0Q364.8 47.4 364.6 46.9Q364.4 46.4 364.0 46.1Q363.7 45.8 363.1 45.8L363.1 45.8Q362.5 45.8 362.2 46.1Q361.8 46.3 361.6 46.8Q361.4 47.3 361.4 48.0L361.4 48.0Q361.4 48.7 361.6 49.2Q361.8 49.7 362.2 50.0Q362.6 50.3 363.1 50.3ZM371.9 51.1L371.9 51.1Q371.3 51.1 370.8 50.9Q370.4 50.7 370.1 50.3Q369.8 49.9 369.8 49.3L369.8 49.3Q369.8 48.8 370.0 48.5Q370.2 48.1 370.6 47.9Q370.9 47.8 371.3 47.7Q371.7 47.6 372.2 47.5L372.2 47.5Q372.7 47.5 373.0 47.4Q373.4 47.4 373.5 47.3Q373.7 47.2 373.7 47.0L373.7 47.0L373.7 46.9Q373.7 46.6 373.6 46.3Q373.4 46.0 373.1 45.9Q372.9 45.8 372.4 45.8L372.4 45.8Q372.0 45.8 371.7 45.9Q371.4 46.0 371.2 46.2Q371.0 46.4 370.9 46.6L370.9 46.6L370.0 46.3Q370.2 45.8 370.6 45.5Q371.0 45.2 371.5 45.0Q372.0 44.9 372.4 44.9L372.4 44.9Q372.7 44.9 373.1 45.0Q373.5 45.1 373.8 45.3Q374.2 45.5 374.4 45.9Q374.7 46.3 374.7 47.0L374.7 47.0L374.7 51L373.7 51L373.7 50.2L373.7 50.2Q373.6 50.4 373.3 50.6Q373.1 50.8 372.7 51.0Q372.4 51.1 371.9 51.1ZM372.0 50.3L372.0 50.3Q372.6 50.3 372.9 50.1Q373.3 49.9 373.5 49.5Q373.7 49.2 373.7 48.8L373.7 48.8L373.7 48.0Q373.6 48.1 373.4 48.1Q373.3 48.2 373.0 48.2Q372.7 48.3 372.5 48.3Q372.3 48.3 372.1 48.3L372.1 48.3Q371.8 48.4 371.5 48.5Q371.2 48.6 371.0 48.8Q370.8 49.0 370.8 49.3L370.8 49.3Q370.8 49.7 371.0 49.9Q371.1 50.1 371.4 50.2Q371.7 50.3 372.0 50.3ZM380.3 47.4L380.3 47.4L380.3 51L379.4 51L379.4 45.0L380.3 45.0L380.3 46.1Q380.6 45.5 381.0 45.3L381.0 45.3Q381.5 44.9 382.1 44.9L382.1 44.9Q382.7 44.9 383.2 45.2Q383.7 45.4 383.9 45.9Q384.2 46.4 384.2 47.2L384.2 47.2L384.2 51L383.2 51L383.2 47.3Q383.2 46.6 382.8 46.2Q382.5 45.8 381.9 45.8L381.9 45.8Q381.4 45.8 381.1 46.0Q380.7 46.2 380.5 46.5Q380.3 46.9 380.3 47.4ZM391.1 51.1L391.1 51.1Q390.4 51.1 389.8 50.7Q389.2 50.4 388.9 49.7Q388.6 49.0 388.6 48.0L388.6 48.0Q388.6 47.1 388.9 46.4Q389.2 45.7 389.8 45.3Q390.4 44.9 391.1 44.9L391.1 44.9Q391.7 44.9 392.1 45.1Q392.4 45.3 392.6 45.6Q392.8 45.8 392.9 46.0L392.9 46.0L392.9 46.0L392.9 43.0L393.9 43.0L393.9 51L393.0 51L393.0 50.1L392.9 50.1Q392.8 50.2 392.6 50.5Q392.4 50.7 392.0 50.9Q391.7 51.1 391.1 51.1ZM391.3 50.3L391.3 50.3Q391.8 50.3 392.2 50.0Q392.6 49.7 392.8 49.2Q393.0 48.7 393.0 48.0L393.0 48.0Q393.0 47.3 392.8 46.8Q392.6 46.3 392.2 46.1Q391.8 45.8 391.3 45.8L391.3 45.8Q390.7 45.8 390.3 46.1Q389.9 46.4 389.8 46.9Q389.6 47.4 389.6 48.0L389.6 48.0Q389.6 48.6 389.8 49.1Q389.9 49.7 390.3 50.0Q390.7 50.3 391.3 50.3ZM401.1 51.1L401.1 51.1Q400.3 51.1 399.6 50.7Q399.0 50.4 398.7 49.7Q398.3 49.0 398.3 48.0Q398.3 47.1 398.6 46.4Q399.0 45.7 399.6 45.3Q400.2 44.9 401.0 44.9L401.0 44.9Q401.5 44.9 402.0 45.1Q402.4 45.2 402.8 45.6Q403.2 45.9 403.4 46.5Q403.6 47.1 403.6 47.9L403.6 47.9L403.6 48.3L399.3 48.3Q399.3 48.9 399.5 49.3L399.5 49.3Q399.8 49.8 400.2 50.0Q400.6 50.3 401.1 50.3L401.1 50.3Q401.5 50.3 401.8 50.2Q402.1 50.1 402.3 49.9Q402.5 49.7 402.6 49.3L402.6 49.3L403.5 49.6Q403.4 50.1 403.1 50.4Q402.7 50.7 402.2 50.9Q401.7 51.1 401.1 51.1ZM399.3 47.5L399.3 47.5L402.6 47.5Q402.6 47.1 402.5 46.8L402.5 46.8Q402.3 46.3 401.9 46.0Q401.6 45.8 401.0 45.8Q400.5 45.8 400.1 46.0Q399.7 46.3 399.5 46.7L399.5 46.7Q399.3 47.1 399.3 47.5ZM407.9 53.2L407.9 53.2L408.2 52.3L408.3 52.4Q408.6 52.4 408.8 52.4Q409.0 52.4 409.2 52.2Q409.4 52.0 409.6 51.5L409.6 51.5L409.8 51.0L407.5 45.0L408.5 45.0L409.8 48.6Q410 49.1 410.1 49.7L410.1 49.7Q410.2 49.9 410.3 50.1L410.3 50.1Q410.3 49.9 410.4 49.7L410.4 49.7Q410.5 49.1 410.7 48.6L410.7 48.6L412.0 45.0L413.1 45.0L410.4 51.9Q410.2 52.4 410.0 52.7Q409.7 53.0 409.4 53.1Q409.1 53.3 408.6 53.3L408.6 53.3Q408.4 53.3 408.2 53.3Q408.0 53.2 407.9 53.2Z M424.0 47.9L424.0 47.9Q423.7 47.9 423.5 47.7Q423.3 47.5 423.3 47.2L423.3 47.2Q423.3 46.9 423.5 46.7Q423.7 46.5 424.0 46.5L424.0 46.5Q424.3 46.5 424.5 46.7Q424.8 46.9 424.8 47.2L424.8 47.2Q424.8 47.5 424.5 47.7Q424.3 47.9 424.0 47.9Z M438.0 51.1L438.0 51.1Q437.2 51.1 436.6 50.7Q436.0 50.4 435.6 49.7Q435.3 49.0 435.3 48.0L435.3 48.0Q435.3 47.1 435.6 46.4Q436.0 45.7 436.6 45.3Q437.2 44.9 438.0 44.9L438.0 44.9Q438.4 44.9 438.8 45.0Q439.2 45.1 439.5 45.4Q439.8 45.6 440.1 45.9Q440.3 46.2 440.4 46.6L440.4 46.6L439.5 46.8Q439.4 46.6 439.3 46.4Q439.2 46.2 439.0 46.1Q438.8 45.9 438.5 45.9Q438.3 45.8 438.0 45.8L438.0 45.8Q437.4 45.8 437.0 46.1Q436.6 46.4 436.4 46.9Q436.2 47.4 436.2 48.0L436.2 48.0Q436.2 48.6 436.4 49.1Q436.6 49.6 437.0 50.0Q437.4 50.3 438.0 50.3L438.0 50.3Q438.3 50.3 438.6 50.2Q438.8 50.1 439.0 50.0Q439.2 49.8 439.3 49.6Q439.5 49.4 439.5 49.2L439.5 49.2L440.5 49.4Q440.3 49.8 440.1 50.1Q439.9 50.5 439.5 50.7Q439.2 50.9 438.8 51.0Q438.4 51.1 438.0 51.1ZM445.8 51L444.8 51L444.8 45.0L445.8 45.0L445.8 45.9L445.8 45.9Q446.0 45.5 446.4 45.2Q446.9 44.9 447.4 44.9L447.4 44.9Q447.5 44.9 447.7 44.9Q447.8 44.9 447.9 44.9L447.9 44.9L447.9 45.9Q447.8 45.9 447.7 45.9Q447.5 45.8 447.3 45.8L447.3 45.8Q446.9 45.8 446.5 46.0Q446.2 46.2 446.0 46.5Q445.8 46.8 445.8 47.2L445.8 47.2L445.8 51ZM453.7 51.1L453.7 51.1Q453.1 51.1 452.6 50.9Q452.2 50.7 451.9 50.3Q451.6 49.9 451.6 49.3L451.6 49.3Q451.6 48.8 451.8 48.5Q452.0 48.1 452.4 47.9Q452.7 47.8 453.1 47.7Q453.5 47.6 454.0 47.5L454.0 47.5Q454.5 47.5 454.8 47.4Q455.2 47.4 455.3 47.3Q455.5 47.2 455.5 47.0L455.5 47.0L455.5 46.9Q455.5 46.6 455.4 46.3Q455.2 46.0 454.9 45.9Q454.7 45.8 454.2 45.8L454.2 45.8Q453.8 45.8 453.5 45.9Q453.2 46.0 453.0 46.2Q452.8 46.4 452.7 46.6L452.7 46.6L451.8 46.3Q452.0 45.8 452.4 45.5Q452.8 45.2 453.3 45.0Q453.7 44.9 454.2 44.9L454.2 44.9Q454.5 44.9 454.9 45.0Q455.3 45.1 455.6 45.3Q456.0 45.5 456.2 45.9Q456.5 46.3 456.5 47.0L456.5 47.0L456.5 51L455.5 51L455.5 50.2L455.4 50.2Q455.3 50.4 455.1 50.6Q454.9 50.8 454.5 51.0Q454.2 51.1 453.7 51.1ZM453.8 50.3L453.8 50.3Q454.4 50.3 454.7 50.1Q455.1 49.9 455.3 49.5Q455.5 49.2 455.5 48.8L455.5 48.8L455.5 48.0Q455.4 48.1 455.2 48.1Q455.0 48.2 454.8 48.2Q454.5 48.3 454.3 48.3Q454.0 48.3 453.9 48.3L453.9 48.3Q453.6 48.4 453.3 48.5Q453.0 48.6 452.8 48.8Q452.6 49.0 452.6 49.3L452.6 49.3Q452.6 49.7 452.8 49.9Q452.9 50.1 453.2 50.2Q453.5 50.3 453.8 50.3ZM462.6 45.0L464.0 45.0L464.0 45.8L462.6 45.8L462.6 51L461.6 51L461.6 45.8L460.4 45.8L460.4 45.0L461.6 45.0L461.6 44.2Q461.6 43.7 461.8 43.3Q462.1 43.0 462.5 42.8Q462.9 42.6 463.3 42.6L463.3 42.6Q463.7 42.6 463.9 42.7Q464.1 42.7 464.2 42.8L464.2 42.8L463.9 43.6Q463.9 43.6 463.7 43.6Q463.6 43.5 463.4 43.5L463.4 43.5Q463.0 43.5 462.8 43.7Q462.6 44.0 462.6 44.4L462.6 44.4L462.6 45.0ZM469.4 45.0L470.6 45.0L470.6 45.8L469.4 45.8L469.4 49.4Q469.4 49.8 469.5 50.0Q469.7 50.2 470.1 50.2L470.1 50.2Q470.2 50.2 470.3 50.2Q470.4 50.2 470.6 50.2L470.6 50.2L470.8 51.0Q470.6 51.0 470.4 51.0Q470.2 51.1 470.0 51.1L470.0 51.1Q469.3 51.1 468.8 50.7Q468.4 50.3 468.4 49.5L468.4 49.5L468.4 45.8L467.5 45.8L467.5 45.0L468.4 45.0L468.4 43.6L469.4 43.6L469.4 45.0ZM477.4 51.1L477.4 51.1Q476.5 51.1 475.9 50.7Q475.2 50.4 474.9 49.7Q474.5 49.0 474.5 48.0Q474.5 47.1 474.9 46.4Q475.2 45.7 475.8 45.3Q476.4 44.9 477.2 44.9L477.2 44.9Q477.7 44.9 478.2 45.1Q478.6 45.2 479.0 45.6Q479.4 45.9 479.6 46.5Q479.9 47.1 479.9 47.9L479.9 47.9L479.9 48.3L475.5 48.3Q475.5 48.9 475.7 49.3L475.7 49.3Q476.0 49.8 476.4 50.0Q476.8 50.3 477.4 50.3L477.4 50.3Q477.7 50.3 478.0 50.2Q478.3 50.1 478.5 49.9Q478.7 49.7 478.8 49.3L478.8 49.3L479.8 49.6Q479.6 50.1 479.3 50.4Q479.0 50.7 478.5 50.9Q478.0 51.1 477.4 51.1ZM475.5 47.5L475.5 47.5L478.9 47.5Q478.8 47.1 478.7 46.8L478.7 46.8Q478.5 46.3 478.1 46.0Q477.8 45.8 477.2 45.8Q476.7 45.8 476.3 46.0Q475.9 46.3 475.7 46.7L475.7 46.7Q475.5 47.1 475.5 47.5ZM486.5 51.1L486.5 51.1Q485.7 51.1 485.2 50.7Q484.6 50.4 484.3 49.7Q484.0 49.0 484.0 48.0L484.0 48.0Q484.0 47.1 484.3 46.4Q484.6 45.7 485.2 45.3Q485.8 44.9 486.5 44.9L486.5 44.9Q487.1 44.9 487.4 45.1Q487.8 45.3 488.0 45.6Q488.1 45.8 488.2 46.0L488.2 46.0L488.3 46.0L488.3 43.0L489.3 43.0L489.3 51L488.3 51L488.3 50.1L488.2 50.1Q488.1 50.2 488.0 50.5Q487.8 50.7 487.4 50.9Q487.1 51.1 486.5 51.1ZM486.6 50.3L486.6 50.3Q487.2 50.3 487.6 50.0Q487.9 49.7 488.1 49.2Q488.3 48.7 488.3 48.0L488.3 48.0Q488.3 47.3 488.1 46.8Q487.9 46.3 487.6 46.1Q487.2 45.8 486.6 45.8L486.6 45.8Q486.1 45.8 485.7 46.1Q485.3 46.4 485.1 46.9Q484.9 47.4 484.9 48.0L484.9 48.0Q484.9 48.6 485.1 49.1Q485.3 49.7 485.7 50.0Q486.1 50.3 486.6 50.3Z M502.4 51L501.4 51L499.6 45.0L500.6 45.0L501.4 47.6Q501.5 48.2 501.7 48.8L501.7 48.8Q501.8 49.3 501.9 50.0L501.9 50.0Q502.1 49.4 502.2 48.9L502.2 48.9Q502.3 48.2 502.5 47.6L502.5 47.6L503.2 45.0L504.2 45.0L505.0 47.6Q505.1 48.2 505.3 48.8L505.3 48.8Q505.4 49.4 505.5 49.9L505.5 49.9Q505.6 49.4 505.8 48.9L505.8 48.9Q505.9 48.2 506.1 47.6L506.1 47.6L506.8 45.0L507.8 45.0L506.0 51L505.1 51L504.3 48.3Q504.2 47.9 504.1 47.4Q503.9 47.0 503.8 46.6L503.8 46.6Q503.8 46.3 503.7 46.1L503.7 46.1Q503.7 46.3 503.6 46.6L503.6 46.6Q503.5 47.0 503.4 47.4Q503.3 47.9 503.2 48.3L503.2 48.3L502.4 51ZM513.0 51L512.1 51L512.1 45.0L513.0 45.0L513.0 51ZM512.6 44.0L512.6 44.0Q512.3 44.0 512.1 43.8Q511.9 43.6 511.9 43.4L511.9 43.4Q511.9 43.1 512.1 42.9Q512.3 42.7 512.6 42.7L512.6 42.7Q512.8 42.7 513.0 42.9Q513.2 43.1 513.2 43.4L513.2 43.4Q513.2 43.6 513.0 43.8Q512.8 44.0 512.6 44.0ZM518.9 45.0L520.1 45.0L520.1 45.8L518.9 45.8L518.9 49.4Q518.9 49.8 519.0 50.0Q519.2 50.2 519.6 50.2L519.6 50.2Q519.7 50.2 519.8 50.2Q519.9 50.2 520.1 50.2L520.1 50.2L520.3 51.0Q520.1 51.0 519.9 51.0Q519.7 51.1 519.5 51.1L519.5 51.1Q518.8 51.1 518.3 50.7Q517.9 50.3 517.9 49.5L517.9 49.5L517.9 45.8L517.0 45.8L517.0 45.0L517.9 45.0L517.9 43.6L518.9 43.6L518.9 45.0ZM525.3 47.4L525.3 47.4L525.3 51L524.3 51L524.3 43.0L525.3 43.0L525.3 46.0Q525.5 45.5 525.9 45.3L525.9 45.3Q526.4 44.9 527.1 44.9L527.1 44.9Q527.7 44.9 528.2 45.2Q528.6 45.4 528.9 45.9Q529.1 46.4 529.1 47.2L529.1 47.2L529.1 51L528.2 51L528.2 47.3Q528.2 46.6 527.8 46.2Q527.4 45.8 526.8 45.8L526.8 45.8Q526.4 45.8 526.0 46.0Q525.7 46.2 525.5 46.5Q525.3 46.9 525.3 47.4Z M540.9 53.2L539.9 53.2L539.9 45.0L540.9 45.0L540.9 46.0L541.0 46.0Q541.1 45.8 541.3 45.6Q541.4 45.3 541.8 45.1Q542.1 44.9 542.7 44.9L542.7 44.9Q543.5 44.9 544.0 45.3Q544.6 45.7 544.9 46.4Q545.3 47.1 545.3 48.0L545.3 48.0Q545.3 49.0 544.9 49.7Q544.6 50.4 544.0 50.7Q543.5 51.1 542.7 51.1L542.7 51.1Q542.2 51.1 541.8 50.9Q541.5 50.7 541.3 50.5Q541.1 50.2 541.0 50.1L541.0 50.1L540.9 50.1L540.9 53.2ZM542.6 50.3L542.6 50.3Q543.1 50.3 543.5 50.0Q543.9 49.7 544.1 49.1Q544.3 48.6 544.3 48.0L544.3 48.0Q544.3 47.4 544.1 46.9Q543.9 46.4 543.5 46.1Q543.1 45.8 542.6 45.8L542.6 45.8Q542.0 45.8 541.6 46.1Q541.3 46.3 541.1 46.8Q540.9 47.3 540.9 48.0L540.9 48.0Q540.9 48.7 541.1 49.2Q541.3 49.7 541.7 50.0Q542.0 50.3 542.6 50.3ZM550.6 51L549.7 51L549.7 45.0L550.6 45.0L550.6 45.9L550.7 45.9Q550.8 45.5 551.3 45.2Q551.7 44.9 552.2 44.9L552.2 44.9Q552.3 44.9 552.5 44.9Q552.6 44.9 552.7 44.9L552.7 44.9L552.7 45.9Q552.7 45.9 552.5 45.9Q552.3 45.8 552.1 45.8L552.1 45.8Q551.7 45.8 551.4 46.0Q551.0 46.2 550.8 46.5Q550.6 46.8 550.6 47.2L550.6 47.2L550.6 51ZM559.3 51.1L559.3 51.1Q558.5 51.1 557.8 50.7Q557.2 50.4 556.9 49.7Q556.5 49.0 556.5 48.0Q556.5 47.1 556.9 46.4Q557.2 45.7 557.8 45.3Q558.4 44.9 559.2 44.9L559.2 44.9Q559.7 44.9 560.2 45.1Q560.6 45.2 561.0 45.6Q561.4 45.9 561.6 46.5Q561.8 47.1 561.8 47.9L561.8 47.9L561.8 48.3L557.5 48.3Q557.5 48.9 557.7 49.3L557.7 49.3Q558.0 49.8 558.4 50.0Q558.8 50.3 559.3 50.3L559.3 50.3Q559.7 50.3 560.0 50.2Q560.3 50.1 560.5 49.9Q560.7 49.7 560.8 49.3L560.8 49.3L561.7 49.6Q561.6 50.1 561.3 50.4Q560.9 50.7 560.4 50.9Q560.0 51.1 559.3 51.1ZM557.5 47.5L557.5 47.5L560.9 47.5Q560.8 47.1 560.7 46.8L560.7 46.8Q560.5 46.3 560.1 46.0Q559.8 45.8 559.2 45.8Q558.7 45.8 558.3 46.0Q557.9 46.3 557.7 46.7L557.7 46.7Q557.5 47.1 557.5 47.5ZM568.7 51.1L568.7 51.1Q567.9 51.1 567.2 50.7Q566.6 50.4 566.3 49.7Q565.9 49.0 565.9 48.0L565.9 48.0Q565.9 47.1 566.3 46.4Q566.6 45.7 567.2 45.3Q567.9 44.9 568.7 44.9L568.7 44.9Q569.1 44.9 569.5 45.0Q569.9 45.1 570.2 45.4Q570.5 45.6 570.7 45.9Q571.0 46.2 571.1 46.6L571.1 46.6L570.2 46.8Q570.1 46.6 570.0 46.4Q569.8 46.2 569.6 46.1Q569.5 45.9 569.2 45.9Q569.0 45.8 568.7 45.8L568.7 45.8Q568.1 45.8 567.7 46.1Q567.3 46.4 567.1 46.9Q566.9 47.4 566.9 48.0L566.9 48.0Q566.9 48.6 567.1 49.1Q567.3 49.6 567.7 50.0Q568.1 50.3 568.7 50.3L568.7 50.3Q569.0 50.3 569.2 50.2Q569.5 50.1 569.7 50.0Q569.9 49.8 570.0 49.6Q570.1 49.4 570.2 49.2L570.2 49.2L571.1 49.4Q571.0 49.8 570.8 50.1Q570.5 50.5 570.2 50.7Q569.9 50.9 569.5 51.0Q569.1 51.1 568.7 51.1ZM576.5 51L575.5 51L575.5 45.0L576.5 45.0L576.5 51ZM576.0 44.0L576.0 44.0Q575.7 44.0 575.5 43.8Q575.3 43.6 575.3 43.4L575.3 43.4Q575.3 43.1 575.5 42.9Q575.7 42.7 576.0 42.7L576.0 42.7Q576.3 42.7 576.5 42.9Q576.7 43.1 576.7 43.4L576.7 43.4Q576.7 43.6 576.5 43.8Q576.3 44.0 576.0 44.0ZM583.2 51.1L583.2 51.1Q582.6 51.1 582.1 50.9Q581.6 50.8 581.3 50.4Q581.0 50.1 580.9 49.5L580.9 49.5L581.8 49.3Q582.0 49.8 582.3 50.0Q582.7 50.3 583.2 50.3L583.2 50.3Q583.8 50.3 584.2 50.0Q584.6 49.7 584.6 49.4L584.6 49.4Q584.6 49.1 584.4 48.9Q584.1 48.6 583.7 48.5L583.7 48.5L582.7 48.3Q581.9 48.1 581.5 47.7Q581.1 47.3 581.1 46.7L581.1 46.7Q581.1 46.2 581.4 45.8Q581.7 45.4 582.2 45.1Q582.7 44.9 583.3 44.9L583.3 44.9Q583.9 44.9 584.4 45.1Q584.8 45.3 585.1 45.6Q585.3 45.9 585.5 46.4L585.5 46.4L584.6 46.6Q584.5 46.3 584.2 46.0Q583.9 45.7 583.3 45.7L583.3 45.7Q582.8 45.7 582.4 46.0Q582.1 46.2 582.1 46.6L582.1 46.6Q582.1 46.9 582.3 47.1Q582.5 47.3 583.1 47.5L583.1 47.5L584.0 47.7Q584.8 47.9 585.2 48.3Q585.6 48.7 585.6 49.3L585.6 49.3Q585.6 49.8 585.3 50.2Q585.0 50.7 584.5 50.9Q583.9 51.1 583.2 51.1ZM590.9 51L590.0 51L590.0 45.0L590.9 45.0L590.9 51ZM590.5 44.0L590.5 44.0Q590.2 44.0 590.0 43.8Q589.8 43.6 589.8 43.4L589.8 43.4Q589.8 43.1 590.0 42.9Q590.2 42.7 590.5 42.7L590.5 42.7Q590.7 42.7 590.9 42.9Q591.1 43.1 591.1 43.4L591.1 43.4Q591.1 43.6 590.9 43.8Q590.7 44.0 590.5 44.0ZM598.1 51.1L598.1 51.1Q597.3 51.1 596.7 50.7Q596.0 50.4 595.7 49.7Q595.4 49.0 595.4 48.0L595.4 48.0Q595.4 47.1 595.7 46.4Q596.0 45.7 596.7 45.3Q597.3 44.9 598.1 44.9L598.1 44.9Q598.9 44.9 599.5 45.3Q600.1 45.7 600.5 46.4Q600.8 47.1 600.8 48.0L600.8 48.0Q600.8 49.0 600.5 49.7Q600.1 50.4 599.5 50.7Q598.9 51.1 598.1 51.1ZM598.1 50.3L598.1 50.3Q598.7 50.3 599.1 50.0Q599.5 49.6 599.7 49.1Q599.9 48.6 599.9 48.0L599.9 48.0Q599.9 47.4 599.7 46.9Q599.5 46.4 599.1 46.1Q598.7 45.8 598.1 45.8L598.1 45.8Q597.5 45.8 597.1 46.1Q596.7 46.4 596.5 46.9Q596.3 47.4 596.3 48.0L596.3 48.0Q596.3 48.6 596.5 49.1Q596.7 49.6 597.1 50.0Q597.5 50.3 598.1 50.3ZM606.2 47.4L606.2 47.4L606.2 51L605.2 51L605.2 45.0L606.2 45.0L606.2 46.1Q606.4 45.5 606.8 45.3L606.8 45.3Q607.3 44.9 608.0 44.9L608.0 44.9Q608.6 44.9 609.1 45.2Q609.5 45.4 609.8 45.9Q610.0 46.4 610.0 47.2L610.0 47.2L610.0 51L609.1 51L609.1 47.3Q609.1 46.6 608.7 46.2Q608.3 45.8 607.7 45.8L607.7 45.8Q607.3 45.8 606.9 46.0Q606.6 46.2 606.4 46.5Q606.2 46.9 606.2 47.4Z "/></g></svg>